<mxfile host="app.diagrams.net" modified="2023-02-13T13:06:33.159Z" agent="5.0 (Windows NT 10.0; Win64; x64) AppleWebKit/537.36 (KHTML, like Gecko) Chrome/110.0.0.0 Safari/537.36 Edg/110.0.1587.41" etag="ub4kPfz7GSHxxcv-qeoR" version="20.8.20" type="github">
  <diagram name="第 1 页" id="WD2iW0TmA2BiwTpobsJJ">
    <mxGraphModel dx="1114" dy="616" grid="1" gridSize="10" guides="1" tooltips="1" connect="1" arrows="1" fold="1" page="1" pageScale="1" pageWidth="827" pageHeight="1169" math="0" shadow="0">
      <root>
        <mxCell id="0" />
        <mxCell id="1" parent="0" />
        <mxCell id="ttMrLlS8LR5_MQvA2qy1-2" value="开始" style="strokeWidth=2;html=1;shape=mxgraph.flowchart.terminator;whiteSpace=wrap;" vertex="1" parent="1">
          <mxGeometry x="345" y="20" width="100" height="40" as="geometry" />
        </mxCell>
        <mxCell id="ttMrLlS8LR5_MQvA2qy1-3" value="列出想检测的故障原语" style="rounded=0;whiteSpace=wrap;html=1;strokeWidth=2;" vertex="1" parent="1">
          <mxGeometry x="330" y="80" width="130" height="30" as="geometry" />
        </mxCell>
        <mxCell id="ttMrLlS8LR5_MQvA2qy1-4" value="找到故障原语对应的检测序列" style="rounded=0;whiteSpace=wrap;html=1;strokeWidth=2;" vertex="1" parent="1">
          <mxGeometry x="330" y="130" width="130" height="30" as="geometry" />
        </mxCell>
        <mxCell id="ttMrLlS8LR5_MQvA2qy1-5" value="分组" style="rounded=0;whiteSpace=wrap;html=1;strokeWidth=2;" vertex="1" parent="1">
          <mxGeometry x="330" y="180" width="130" height="30" as="geometry" />
        </mxCell>
        <mxCell id="ttMrLlS8LR5_MQvA2qy1-6" value="是否可合并" style="rhombus;whiteSpace=wrap;html=1;strokeWidth=2;" vertex="1" parent="1">
          <mxGeometry x="310" y="285" width="170" height="80" as="geometry" />
        </mxCell>
        <mxCell id="ttMrLlS8LR5_MQvA2qy1-8" value="同组内合并" style="rounded=0;whiteSpace=wrap;html=1;strokeWidth=2;" vertex="1" parent="1">
          <mxGeometry x="330" y="230" width="130" height="30" as="geometry" />
        </mxCell>
        <mxCell id="ttMrLlS8LR5_MQvA2qy1-9" value="划分为不同组" style="rounded=0;whiteSpace=wrap;html=1;strokeWidth=2;" vertex="1" parent="1">
          <mxGeometry x="530" y="310" width="130" height="30" as="geometry" />
        </mxCell>
        <mxCell id="ttMrLlS8LR5_MQvA2qy1-10" value="不同组合并" style="rounded=0;whiteSpace=wrap;html=1;strokeWidth=2;" vertex="1" parent="1">
          <mxGeometry x="330" y="400" width="130" height="30" as="geometry" />
        </mxCell>
        <mxCell id="ttMrLlS8LR5_MQvA2qy1-11" value="是否还能合并" style="rhombus;whiteSpace=wrap;html=1;strokeWidth=2;" vertex="1" parent="1">
          <mxGeometry x="310" y="460" width="170" height="80" as="geometry" />
        </mxCell>
        <mxCell id="ttMrLlS8LR5_MQvA2qy1-15" style="edgeStyle=orthogonalEdgeStyle;rounded=0;orthogonalLoop=1;jettySize=auto;html=1;exitX=0.5;exitY=0;exitDx=0;exitDy=0;" edge="1" parent="1" source="ttMrLlS8LR5_MQvA2qy1-12">
          <mxGeometry relative="1" as="geometry">
            <mxPoint x="410" y="580" as="targetPoint" />
          </mxGeometry>
        </mxCell>
        <mxCell id="ttMrLlS8LR5_MQvA2qy1-12" value="拼接March元素" style="rounded=0;whiteSpace=wrap;html=1;strokeWidth=2;" vertex="1" parent="1">
          <mxGeometry x="330" y="590" width="130" height="30" as="geometry" />
        </mxCell>
        <mxCell id="ttMrLlS8LR5_MQvA2qy1-13" value="得到另一方向上的算法并拼接" style="rounded=0;whiteSpace=wrap;html=1;strokeWidth=2;" vertex="1" parent="1">
          <mxGeometry x="330" y="670" width="130" height="30" as="geometry" />
        </mxCell>
        <mxCell id="ttMrLlS8LR5_MQvA2qy1-14" value="结束" style="strokeWidth=2;html=1;shape=mxgraph.flowchart.terminator;whiteSpace=wrap;" vertex="1" parent="1">
          <mxGeometry x="340" y="720" width="100" height="40" as="geometry" />
        </mxCell>
      </root>
    </mxGraphModel>
  </diagram>
</mxfile>
